<svg viewBox="0 0 929 828" xmlns="http://www.w3.org/2000/svg" fill-rule="evenodd" clip-rule="evenodd" stroke-linejoin="round" stroke-miterlimit="2">
  <path d="M633 153c15.442 25.923 10.532 78.84-6.355 110.886a664.42 664.42 0 01-20.727 36.449c-59.044 96.709-141.426 176.217-224.741 251.814-8.476 7.69-17.299 14.992-26.12 22.283-26.143 21.609-59.422 48.773-95.993 37.829-9.663-2.892-17.019-7.44-24.883-13.617-28.201-22.153-40.232-58.314-47.876-91.998-9.883-43.551-19.078-87.255-28.734-130.856-9.011-40.695-17.599-85.822-44.65-119.099-22.188-27.294-61.302-31.807-93.937-26.157-19.417 3.362-18.739 5.655-37.906 9.901-23.015 5.098-47.575 5.827-71.058 5.099-16.87-.523-33.752-1.22-50.557-2.78-49.195-4.566-106.813-18.815-132.303-66.04-25.997-48.164-8.595-103.271 14.257-148.696 24.978-49.651 58.721-94.728 92.8-138.376 31.518-40.367 67.097-88.114 120.377-99.764 15.606-3.413 26.886-3.375 42.727-2.181 73.341 5.527 134.27 56.568 181.807 108.698 15.954 17.495 31.751 35.149 46.912 53.335 29.248 35.084 54.844 77.95 94.653 102.975 27.033 16.994 57.002 29.419 88.303 35.874 41.368 8.531 83.89 9.765 124.998 19.766C569.408 116.961 617.558 127.077 633 153z" fill="url(#_Linear1)" transform="translate(285.816 213.037)"/>
  <defs>
    <linearGradient id="_Linear1" x1="0" y1="0" x2="1" y2="0" gradientUnits="userSpaceOnUse" gradientTransform="matrix(796 0 0 796 -67 646)">
      <stop offset="0" stop-color="#8658eb"/>
      <stop offset="1" stop-color="#652ae6"/>
    </linearGradient>
  </defs>
</svg>
